<?xml version="1.0" standalone="no"?><!DOCTYPE svg PUBLIC "-//W3C//DTD SVG 1.1//EN" "http://www.w3.org/Graphics/SVG/1.1/DTD/svg11.dtd"><svg t="1619953901629" class="icon" viewBox="0 0 1024 1024" version="1.1" xmlns="http://www.w3.org/2000/svg" p-id="2305" width="15" height="15" xmlns:xlink="http://www.w3.org/1999/xlink"><defs><style type="text/css"></style></defs><path d="M546.9920029 517.79004364L731.51817644 333.26387009c9.31441803-9.31441803 9.31441803-24.67062075-1e-8-33.98503877l-1.00696411-1.0069641c-9.31441803-9.31441803-24.67062075-9.31441803-33.98503878 0L512 483.04978178 327.47382646 298.27186721c-9.31441803-9.31441803-24.67062075-9.31441803-33.98503879 1e-8l-1.0069641 1.0069641c-9.56615907 9.31441803-9.56615907 24.67062075 0 33.98503878l184.52617353 184.52617354L292.48182356 702.31621719c-9.31441803 9.31441803-9.31441803 24.67062075 1e-8 33.98503878l1.00696411 1.00696412c9.31441803 9.31441803 24.67062075 9.31441803 33.98503878 0L512 552.78204656 696.52617354 737.30822009c9.31441803 9.31441803 24.67062075 9.31441803 33.98503879 0l1.0069641-1.00696412c9.31441803-9.31441803 9.31441803-24.67062075 0-33.98503878L546.9920029 517.79004364z" p-id="2306"></path></svg>