<?xml version="1.0" standalone="no"?><!DOCTYPE svg PUBLIC "-//W3C//DTD SVG 1.1//EN" "http://www.w3.org/Graphics/SVG/1.1/DTD/svg11.dtd"><svg t="1619526176958" class="icon" viewBox="0 0 1024 1024" version="1.1" xmlns="http://www.w3.org/2000/svg" p-id="4253" width="25" height="25" xmlns:xlink="http://www.w3.org/1999/xlink"><defs><style type="text/css"></style></defs><path d="M687.8 936l-0.2-0.2-389.4-389.6c-8.7-8.7-13.5-20.2-13.5-32.5s4.8-23.8 13.5-32.5L691.9 87.5c10.9-10.4 28.4-10.2 39.1 0.5 10.9 10.9 10.9 28.7 0 39.7-0.5 0.5-0.9 0.9-1.4 1.3L344.8 513.8 726.1 895c0.5 0.4 0.9 0.8 1.4 1.3 10.9 10.9 10.9 28.7 0 39.7-10.9 10.9-28.8 10.9-39.7 0z" p-id="4254" fill="#ffffff"></path></svg>