<?xml version="1.0" standalone="no"?><!DOCTYPE svg PUBLIC "-//W3C//DTD SVG 1.1//EN" "http://www.w3.org/Graphics/SVG/1.1/DTD/svg11.dtd"><svg t="1619438779870" class="icon" viewBox="0 0 1024 1024" version="1.1" xmlns="http://www.w3.org/2000/svg" p-id="2102" width="20" height="20" xmlns:xlink="http://www.w3.org/1999/xlink"><defs><style type="text/css"></style></defs><path d="M566.6 153.4h9.3c35.7 5.4 25.2 59.2 25.2 106.1v549.1c0 46.1 9.9 97.6-22.5 103.5-19.7 3.6-36.5-12.7-50.4-22.5-85.9-60.9-165.6-116.2-252-177.7-12.2-8.7-32.9-20.4-33.2-38.5-0.3-15.4 12.4-30.2 29.2-30.5 14.4-0.3 26.4 12.5 37.1 19.9 76.3 52.9 162.7 110.6 236.1 161.8v-581c-75.5 51-151.5 109.4-229.5 167.1-11.4 8.4-24.6 19.9-34.5 22.6-23.1 6.2-52.1 1.3-78.3 1.3h-78.3c-3.1 62.3-0.4 130.4-1.3 195 35.3-1.4 66.6-2.5 67.6 27.9 0.3 7.7-3.7 22-15.9 27.9-16 7.6-86.8 4.7-96.8-2.7-6.3-4.6-9.3-13.2-11.9-21.2V404.2c5.2-37 66.9-26.5 106.1-26.5 25.4 0 67.1 5.9 90.2 0 10.6-2.7 25.3-18.7 37.1-27.9 65.6-50.4 125.3-92.8 188.3-140.6 22.4-17 53.9-45.2 78.4-55.8zM725 724.7c-5.9 0-11.6-1.9-16.4-5.3-12.6-9.1-15.4-26.6-6.4-39.2l11.1-15.2c29.1-39.4 54.2-73.5 54.2-132 0-60.6-22.2-90-50.4-127.2-5-6.5-9.9-13.1-14.8-20-9.1-12.6-6.2-30.1 6.4-39.2s30.1-6.2 39.2 6.4c4.6 6.4 9.3 12.7 14 18.9 30.4 40.2 61.8 81.7 61.8 161.1 0 76.9-34.6 123.8-65.1 165.3L747.8 713c-5.4 7.6-14.1 11.7-22.8 11.7z" p-id="2103" fill="#8a8a8a"></path><path d="M820.6 820c-6.8 0-13.4-2.5-18.5-7-11.6-10.3-12.8-28-2.6-39.6C855.9 709.2 908 635.6 908 533c0-102.5-52.2-176.2-108.5-240.4-10.3-11.7-9.1-29.4 2.6-39.7 11.6-10.3 29.3-9.1 39.6 2.5 60.6 69 122.4 156 122.4 277.4s-61.9 208.4-122.4 277.4c-5.6 6.6-13.4 9.8-21.1 9.8z" p-id="2104" fill="#8a8a8a"></path></svg>