<?xml version="1.0" standalone="no"?><!DOCTYPE svg PUBLIC "-//W3C//DTD SVG 1.1//EN" "http://www.w3.org/Graphics/SVG/1.1/DTD/svg11.dtd"><svg t="1619954158164" class="icon" viewBox="0 0 1024 1024" version="1.1" xmlns="http://www.w3.org/2000/svg" p-id="4488" width="15" height="15" xmlns:xlink="http://www.w3.org/1999/xlink"><defs><style type="text/css"></style></defs><path d="M586.8 943L316 726.3H186.2C119.4 726.3 65 672 65 605.1V418.9c0-66.9 54.4-121.3 121.3-121.3H316L586.8 81v862zM186.2 354c-35.8 0-64.9 29.1-64.9 64.9v186.2c0 35.8 29.1 64.9 64.9 64.9h149.5l194.7 155.8V198.2L335.8 354H186.2zM841.9 795.2l-39.8-39.8c134.2-134.2 134.2-352.6 0-486.9l39.8-39.8c156.1 156.2 156.1 410.4 0 566.5zM696.6 696.5l-39.8-39.8c79.8-79.8 79.8-209.6 0-289.4l39.8-39.8c101.7 101.8 101.7 267.3 0 369z" p-id="4489" fill="#e38755"></path></svg>