<?xml version="1.0" standalone="no"?><!DOCTYPE svg PUBLIC "-//W3C//DTD SVG 1.1//EN" "http://www.w3.org/Graphics/SVG/1.1/DTD/svg11.dtd"><svg t="1620635483931" class="icon" viewBox="0 0 1048 1024" version="1.1" xmlns="http://www.w3.org/2000/svg" p-id="4180" xmlns:xlink="http://www.w3.org/1999/xlink" width="30.703125" height="30"><defs><style type="text/css"></style></defs><path d="M875.029504 252.599296c-10.487808-81.263616-81.263616-146.799616-167.77216-146.799616H340.252672c-86.503424 0-157.283328 65.536-167.771136 146.799616-39.320576 13.108224-68.156416 47.187968-68.156416 89.127936V761.15968c0 49.808384 41.944064 91.752448 91.752448 91.752448h10.483712c31.456256 39.319552 81.263616 65.536 133.691392 65.536h367.004672c52.427776 0 102.23616-26.216448 133.692416-65.536h10.487808c49.804288 0 91.748352-41.944064 91.748352-91.752448V341.727232c-0.001024-41.939968-28.836864-76.019712-68.156416-89.127936zM340.252672 132.016128h367.004672c70.779904 0 128.448512 49.803264 141.555712 117.963776-49.808384 2.619392-89.127936 41.944064-89.127936 91.747328V761.15968H287.824896V341.727232c0-49.803264-39.319552-89.127936-89.127936-91.747328 13.108224-68.160512 70.779904-117.963776 141.555712-117.963776zM130.541568 761.15968V341.727232c0-36.699136 28.83584-65.536 65.536-65.536 36.699136 0 65.536 28.836864 65.536 65.536V761.15968c0 36.70016-28.836864 65.536-65.536 65.536-36.70016 0-65.536-28.83584-65.536-65.536z m576.715776 131.072H340.252672c-41.939968 0-78.639104-18.353152-107.475968-47.183872 23.591936-10.487808 41.939968-31.461376 49.804288-57.67168h479.72352c7.86432 26.211328 26.216448 47.183872 49.808384 57.67168-26.212352 28.83072-62.911488 47.183872-104.855552 47.183872z m209.7152-131.072c0 36.70016-28.83584 65.536-65.536 65.536s-65.536-28.83584-65.536-65.536V341.727232c0-36.699136 28.83584-65.536 65.536-65.536s65.536 28.836864 65.536 65.536V761.15968z m0 0" p-id="4181" fill="#10a13c"></path><path d="M740.604928 311.79264c-7.426048-6.967296-19.141632-6.634496-26.108928 0.811008L468.062208 574.98624 333.444096 442.344448c-7.28064-7.170048-18.976768-7.09632-26.146816 0.18432-7.169024 7.263232-7.076864 18.978816 0.202752 26.129408l148.108288 145.90976c0.05632 0.054272 0.130048 0.074752 0.186368 0.126976 0.054272 0.05632 0.072704 0.131072 0.130048 0.187392 1.161216 1.106944 2.568192 1.736704 3.915776 2.475008 0.6656 0.38912 1.238016 0.960512 1.94048 1.238016a18.705408 18.705408 0 0 0 6.780928 1.294336c2.422784 0 4.841472-0.480256 7.097344-1.440768 0.758784-0.315392 1.347584-0.961536 2.050048-1.36704 1.38752-0.815104 2.828288-1.498112 4.009984-2.699264 0.05632-0.05632 0.075776-0.147456 0.129024-0.202752 0.03584-0.05632 0.11264-0.072704 0.166912-0.129024l259.387392-276.1472c7.022592-7.410688 6.632448-19.106816-0.797696-26.110976z m0 0" p-id="4182" fill="#10a13c"></path></svg>