<?xml version="1.0" standalone="no"?><!DOCTYPE svg PUBLIC "-//W3C//DTD SVG 1.1//EN" "http://www.w3.org/Graphics/SVG/1.1/DTD/svg11.dtd"><svg t="1619525995107" class="icon" viewBox="0 0 1024 1024" version="1.1" xmlns="http://www.w3.org/2000/svg" p-id="2381" width="25" height="25" xmlns:xlink="http://www.w3.org/1999/xlink"><defs><style type="text/css"></style></defs><path d="M512 0C229.376 0 0 229.376 0 512s229.376 512 512 512 512-229.376 512-512S794.624 0 512 0z m342.016 822.272c-38.912-93.184-139.776-209.92-238.592-209.92h-207.36c-99.328 0-208.896 106.496-248.32 198.656C91.648 730.624 50.176 626.176 50.176 512 50.176 257.024 257.024 50.176 512 50.176S973.824 257.024 973.824 512c0 119.296-45.056 228.352-119.808 310.272z" p-id="2382" fill="#8a8a8a"></path><path d="M510.464 195.584c-102.4 0.512-184.832 83.968-184.32 186.368 0.512 102.4 83.968 184.832 186.368 184.32 101.888 0 184.832-83.456 184.32-185.344v-1.024c-1.024-102.4-84.48-184.832-186.368-184.32z" p-id="2383" fill="#8a8a8a"></path></svg>