<?xml version="1.0" standalone="no"?><!DOCTYPE svg PUBLIC "-//W3C//DTD SVG 1.1//EN" "http://www.w3.org/Graphics/SVG/1.1/DTD/svg11.dtd"><svg t="1620204835709" class="icon" viewBox="0 0 1024 1024" version="1.1" xmlns="http://www.w3.org/2000/svg" p-id="1875" width="15" height="15" xmlns:xlink="http://www.w3.org/1999/xlink"><defs><style type="text/css"></style></defs><path d="M910.188663 113.812364A386.025032 386.025032 0 0 0 635.465809 0.001536a386.025032 386.025032 0 0 0-274.722854 113.810828 386.025032 386.025032 0 0 0-113.810828 274.722854c0 84.577368 26.878401 165.058979 76.539446 231.615019L256.557154 687.064656l-159.529708-159.580905a56.828619 56.828619 0 1 0-80.379217 80.379217l159.529708 159.580905-61.84592 61.897117a56.828619 56.828619 0 0 0 80.379217 80.379218l61.84592-61.948314 159.580905 159.580905a56.828619 56.828619 0 1 0 80.379218-80.379218L336.936372 767.392676l66.863222-66.863222a385.615456 385.615456 0 0 0 231.615018 76.539446 386.025032 386.025032 0 0 0 274.722854-113.810828A386.025032 386.025032 0 0 0 1023.999492 388.586415a386.025032 386.025032 0 0 0-113.810829-274.722854z m-80.379217 469.066491a273.084551 273.084551 0 0 1-194.343637 80.532808 273.084551 273.084551 0 0 1-194.343636-80.532808A273.084551 273.084551 0 0 1 360.589365 388.586415c0-73.416432 28.619097-142.429925 80.532808-194.343636A273.084551 273.084551 0 0 1 635.414612 113.658773c73.416432 0 142.429925 28.619097 194.343637 80.532809a273.084551 273.084551 0 0 1 80.532808 194.343636 273.033355 273.033355 0 0 1-80.532808 194.343637z" fill="#FF4961" p-id="1876"></path></svg>