<?xml version="1.0" standalone="no"?><!DOCTYPE svg PUBLIC "-//W3C//DTD SVG 1.1//EN" "http://www.w3.org/Graphics/SVG/1.1/DTD/svg11.dtd"><svg t="1620196502943" class="icon" viewBox="0 0 1024 1024" version="1.1" xmlns="http://www.w3.org/2000/svg" p-id="3050" width="30" height="30" xmlns:xlink="http://www.w3.org/1999/xlink"><defs><style type="text/css"></style></defs><path d="M505.173333 901.12c-225.28 0-409.6-184.32-409.6-409.6s184.32-409.6 409.6-409.6 409.6 184.32 409.6 409.6c0 109.226667-42.666667 211.626667-119.466666 290.133333-76.8 76.8-180.906667 119.466667-290.133334 119.466667z m0-768c-197.973333 0-358.4 160.426667-358.4 358.4s160.426667 358.4 358.4 358.4c95.573333 0 186.026667-37.546667 254.293334-105.813333s105.813333-157.013333 105.813333-254.293334c-1.706667-194.56-162.133333-356.693333-360.106667-356.693333z" fill="#ff7952" p-id="3051"></path><path d="M761.173333 571.733333H431.786667c-13.653333 0-25.6-11.946667-25.6-25.6V218.453333c0-13.653333 11.946667-25.6 25.6-25.6s25.6 11.946667 25.6 25.6v303.786667h303.786666c13.653333 0 25.6 11.946667 25.6 25.6s-10.24 23.893333-25.6 23.893333z" fill="#ff7952" p-id="3052"></path></svg>