<?xml version="1.0" standalone="no"?><!DOCTYPE svg PUBLIC "-//W3C//DTD SVG 1.1//EN" "http://www.w3.org/Graphics/SVG/1.1/DTD/svg11.dtd"><svg t="1620124732465" class="icon" viewBox="0 0 1024 1024" version="1.1" xmlns="http://www.w3.org/2000/svg" p-id="1976" width="35" height="35" xmlns:xlink="http://www.w3.org/1999/xlink"><defs><style type="text/css"></style></defs><path d="M459.648 770.688c-6.8352 0-13.3632-2.688-18.176-7.5264l-128.5376-128.5376c-10.0352-10.0352-10.0352-26.3168 0-36.352s26.3168-10.0352 36.352 0l110.3616 110.3616 213.1968-213.1968c10.0352-10.0352 26.3168-10.0352 36.352 0s10.0352 26.3168 0 36.352l-231.3728 231.3728a25.6256 25.6256 0 0 1-18.176 7.5264z m0 0" fill="#ff7952" p-id="1977"></path><path d="M819.5584 899.2256H202.5728c-42.5728-0.0512-77.0816-34.56-77.1328-77.1328V256.5376c0.0512-42.5728 34.56-77.0816 77.1328-77.1328h51.4048c14.208 0 25.7024 11.52 25.7024 25.7024 0 14.1824-11.52 25.7024-25.7024 25.7024H202.5728c-14.1824 0.0256-25.7024 11.52-25.7024 25.7024v565.5808c0.0256 14.1824 11.52 25.7024 25.7024 25.7024h616.9856c14.1824-0.0256 25.6768-11.52 25.7024-25.7024V256.5376c-0.0256-14.1824-11.52-25.7024-25.7024-25.7024h-51.4048c-14.208 0-25.7024-11.52-25.7024-25.7024 0-14.208 11.52-25.7024 25.7024-25.7024h51.4048c42.5728 0.0512 77.0816 34.56 77.1328 77.1328v565.5808c-0.0768 42.5472-34.56 77.0304-77.1328 77.0816z m0 0" fill="#ff7952" p-id="1978"></path><path d="M613.888 230.8352h-205.6704c-14.1824 0-25.7024-11.52-25.7024-25.7024 0-14.1824 11.52-25.7024 25.7024-25.7024h205.6448c14.208 0 25.7024 11.52 25.7024 25.7024 0.0256 14.1824-11.4944 25.7024-25.6768 25.7024z m77.1328 51.4048c-6.8096 0-13.3632-2.7136-18.176-7.5264a25.73568 25.73568 0 0 1-7.5264-18.176V153.7024c0-14.1824 11.52-25.7024 25.7024-25.7024 14.208 0 25.7024 11.52 25.7024 25.7024v102.8352c0 6.8096-2.7136 13.3632-7.5264 18.176a25.67168 25.67168 0 0 1-18.176 7.5264z m-359.9104 0c-6.8096 0-13.3632-2.7136-18.176-7.5264a25.73568 25.73568 0 0 1-7.5264-18.176V153.7024c0-14.1824 11.4944-25.7024 25.7024-25.7024 14.208 0 25.7024 11.52 25.7024 25.7024v102.8352c0 6.8096-2.7136 13.3632-7.5264 18.176a25.67168 25.67168 0 0 1-18.176 7.5264z m539.8528 128.5376H151.1424c-14.1824 0-25.7024-11.52-25.7024-25.7024 0-14.208 11.52-25.7024 25.7024-25.7024h719.8208c14.1824 0 25.7024 11.52 25.7024 25.7024 0 14.208-11.52 25.7024-25.7024 25.7024z m0 0" fill="#ff7952" p-id="1979"></path></svg>