<?xml version="1.0" standalone="no"?><!DOCTYPE svg PUBLIC "-//W3C//DTD SVG 1.1//EN" "http://www.w3.org/Graphics/SVG/1.1/DTD/svg11.dtd"><svg t="1620196661813" class="icon" viewBox="0 0 1024 1024" version="1.1" xmlns="http://www.w3.org/2000/svg" p-id="8302" width="30" height="30" xmlns:xlink="http://www.w3.org/1999/xlink"><defs><style type="text/css"></style></defs><path d="M961.152 402.88h-6.464V304.128a60.224 60.224 0 0 0-60.096-60.16h-33.664l16.512-58.048a22.592 22.592 0 0 0-21.632-28.672H137.856a22.016 22.016 0 0 0-13.248 4.8c-22.208 4.928-45.12 14.72-61.696 34.496-20.608 24.576-27.136 59.2-19.392 102.912 0.064 0.32 0.384 0.448 0.448 0.768-0.064 1.344-0.768 2.56-0.768 3.904v502.4a60.16 60.16 0 0 0 60.16 60.096h791.232a60.16 60.16 0 0 0 60.096-60.096V707.84h6.464a22.528 22.528 0 0 0 22.528-22.464V425.344a22.528 22.528 0 0 0-22.528-22.464z m-287.104 259.968c-59.328 0-107.52-48.256-107.52-107.52s48.192-107.52 107.52-107.52h264.64v215.04h-264.64z m-492.8-460.544h644.8l-11.904 41.728H103.296c-5.312 0-9.984 1.728-14.848 3.008 1.92-8.128 4.224-16 8.896-21.568 19.392-23.168 61.312-23.168 83.904-23.168z m728.512 604.288a15.168 15.168 0 0 1-15.168 15.168H103.296a15.232 15.232 0 0 1-15.232-15.168v-502.4c0-8.384 6.784-15.232 15.232-15.232h791.232c8.384 0 15.168 6.848 15.168 15.232v98.688h-235.712a152.64 152.64 0 0 0-152.448 152.448 152.64 152.64 0 0 0 152.448 152.448h235.712v98.816z" p-id="8303" fill="#ff7952"></path><path d="M686.72 489.536a65.92 65.92 0 0 0 0 131.648 65.92 65.92 0 0 0 0-131.648z m0 86.72a20.928 20.928 0 0 1 0-41.792 20.864 20.864 0 1 1 0 41.792z" p-id="8304" fill="#ff7952"></path></svg>