<?xml version="1.0" standalone="no"?><!DOCTYPE svg PUBLIC "-//W3C//DTD SVG 1.1//EN" "http://www.w3.org/Graphics/SVG/1.1/DTD/svg11.dtd"><svg t="1619600798062" class="icon" viewBox="0 0 1024 1024" version="1.1" xmlns="http://www.w3.org/2000/svg" p-id="2296" width="20" height="20" xmlns:xlink="http://www.w3.org/1999/xlink"><defs><style type="text/css"></style></defs><path d="M432.8984375 424.10910034q26.3671875 0 26.3671875 26.3671875v52.734375q0 26.3671875-26.3671875 26.3671875t-26.3671875-26.3671875v-52.734375q0-26.3671875 26.3671875-26.3671875z m175.78097534 0q26.3671875 0 26.3671875 26.3671875v52.734375q0 26.3671875-26.3671875 26.3671875t-26.3671875-26.3671875v-52.734375q0-26.3671875 26.3671875-26.3671875z" fill="#ffffff" p-id="2297"></path><path d="M791.00027466 779.83789063A385.171875 385.171875 0 0 0 898.71847534 512c0-213.22238159-173.46066284-386.71847534-386.68304443-386.71847534C298.7421875 125.19335937 125.28152466 298.68945312 125.28152466 512c0 213.22238159 173.46066284 386.71847534 386.68304443 386.71847534h281.70703125c13.72906494 0 26.17437744-7.94476318 31.95703125-20.30273437a35.24386597 35.24386597 0 0 0-4.74609375-37.58148194m-80.10351562 1.30023194H512C329.97824097 842.1171875 181.8828125 694.02175903 181.8828125 512S329.97824097 181.8828125 512 181.8828125 842.1171875 329.97824097 842.1171875 512a328.53515625 328.53515625 0 0 1-91.95144653 228.60351563c-26.43722534 27.421875-24.27511597 65.33789063-9.38671875 101.53097534z" fill="#ffffff" p-id="2298"></path></svg>