<?xml version="1.0" standalone="no"?><!DOCTYPE svg PUBLIC "-//W3C//DTD SVG 1.1//EN" "http://www.w3.org/Graphics/SVG/1.1/DTD/svg11.dtd"><svg t="1620281277380" class="icon" viewBox="0 0 1024 1024" version="1.1" xmlns="http://www.w3.org/2000/svg" p-id="2485" width="25" height="25" xmlns:xlink="http://www.w3.org/1999/xlink"><defs><style type="text/css"></style></defs><path d="M868.091626 557.877887c-14.128789 0-25.582655 11.453866-25.582655 25.582655l0 262.931365c0 25.955138-21.116947 47.072085-47.072085 47.072085L228.561068 893.463991c-25.956162 0-47.072085-21.116947-47.072085-47.072085L181.488982 583.460542c0-14.128789-11.453866-25.582655-25.582655-25.582655s-25.582655 11.453866-25.582655 25.582655l0 262.931365c0 54.168714 44.068681 98.237395 98.237395 98.237395l566.875818 0c54.168714 0 98.237395-44.068681 98.237395-98.237395L893.674281 583.460542C893.674281 569.331753 882.221438 557.877887 868.091626 557.877887z" p-id="2486"></path><path d="M939.84688 399.030066c0.376577-2.346441 0.436952-4.783956 0.12382-7.261381l-26.451442-209.702046c-0.850367-53.6632-41.614793-97.032964-91.602278-97.032964L202.081996 85.033675c-49.986461 0-90.75191 43.36874-91.602278 97.032964L84.0293 391.767662c-0.295735 2.343371-0.25685 4.649903 0.064468 6.879688-0.252757 1.444908-0.39295 2.928702-0.39295 4.446265 0 69.644173 56.659441 126.303614 126.303614 126.303614 41.081651 0 77.640288-19.720134 100.720959-50.184983 23.080671 30.464849 59.639309 50.184983 100.720959 50.184983 41.031509 0 77.550237-19.672038 100.636025-50.074466 23.085788 30.402427 59.604516 50.074466 100.637048 50.074466 40.995693 0 77.484745-19.637246 100.573603-49.993624 23.088858 30.356378 59.579957 49.993624 100.574626 49.993624 69.644173 0 126.303614-56.659441 126.303614-126.303614C940.172291 401.710105 940.058704 400.354224 939.84688 399.030066zM813.868677 478.230895c-39.747259 0-72.364121-31.025621-74.953086-70.128197 0.064468-1.662873 0.107447-3.330862 0.107447-5.010107 0-14.128789-11.452843-25.582655-25.582655-25.582655-0.049119 0-0.098237 0.00307-0.147356 0.00307s-0.098237-0.00307-0.147356-0.00307c-14.129812 0-25.582655 11.453866-25.582655 25.582655 0 1.678222 0.042979 3.347235 0.107447 5.010107-2.588965 39.102576-35.205826 70.128197-74.952063 70.128197-40.114626 0-72.986291-31.597649-75.035974-71.211878 0.039909-1.304715 0.066515-2.612501 0.066515-3.926426 0-14.128789-11.452843-25.582655-25.582655-25.582655-0.027629 0-0.056282 0.002047-0.084934 0.002047s-0.057305-0.002047-0.084934-0.002047c-14.128789 0-25.582655 11.453866-25.582655 25.582655 0 1.313925 0.026606 2.62171 0.066515 3.926426-2.049682 39.613206-34.921347 71.211878-75.035974 71.211878-41.431621 0-75.138304-33.706683-75.138304-75.138304 0-14.128789-11.453866-25.582655-25.582655-25.582655s-25.582655 11.453866-25.582655 25.582655c0 41.431621-33.706683 75.138304-75.138304 75.138304s-75.138304-33.706683-75.138304-75.138304c0-1.277086-0.096191-2.53166-0.277316-3.75758 0.067538-0.387833 0.152473-0.768503 0.202615-1.164522l26.638707-211.187887c0.134053-1.062192 0.201591-2.131547 0.201591-3.201925 0-26.237571 18.145266-47.583738 40.450271-47.583738l619.836007 0c22.305005 0 40.450271 21.345144 40.450271 47.583738 0 1.070378 0.066515 2.139733 0.200568 3.200902l26.637684 211.187887c0.035816 0.282433 0.082888 0.559748 0.12689 0.839111-0.212848 1.330298-0.327458 2.693342-0.327458 4.082992C889.006981 444.524213 855.299275 478.230895 813.868677 478.230895z" p-id="2487"></path></svg>