<?xml version="1.0" standalone="no"?><!DOCTYPE svg PUBLIC "-//W3C//DTD SVG 1.1//EN" "http://www.w3.org/Graphics/SVG/1.1/DTD/svg11.dtd"><svg t="1619600148885" class="icon" viewBox="0 0 1024 1024" version="1.1" xmlns="http://www.w3.org/2000/svg" p-id="2668" data-spm-anchor-id="a313x.7781069.0.i4" width="20" height="20" xmlns:xlink="http://www.w3.org/1999/xlink"><defs><style type="text/css"></style></defs><path d="M683.9 143.9c-67.95 0-130.95 34.2-172.8 90.45-41.4-56.25-104.85-90.45-172.8-90.45-122.4 0-221.85 108.9-221.85 242.55 0 79.65 35.55 135.9 64.35 180.9 83.25 130.95 292.95 293.4 301.95 300.15 8.55 6.75 18.45 9.9 28.35 9.9s19.8-3.15 28.35-9.9c9-6.75 218.25-169.65 301.95-300.15 28.8-45 64.35-101.25 64.35-180.9 0-133.65-99.45-242.55-221.85-242.55z m100.35 422.1c-76.95 108-239.85 231.3-247.95 237.15-7.65 5.85-16.65 9-25.2 9-9 0-17.55-2.7-25.2-9-8.1-5.85-167.85-130.5-247.95-241.65-25.65-40.5-66.6-90.9-66.6-162 0-119.7 66.6-203.85 175.95-203.85 60.75 0 126.9 58.05 163.8 108.45 37.35-50.4 103.05-108.45 163.8-108.45 109.8 0 180.9 84.15 180.9 203.85 0 71.1-45.45 126.45-71.55 166.5z" fill="#ffffff" p-id="2669"></path></svg>